<?xml version="1.0" standalone="no"?>
<!DOCTYPE svg PUBLIC "-//W3C//DTD SVG 20010904//EN"
 "http://www.w3.org/TR/2001/REC-SVG-20010904/DTD/svg10.dtd">
<svg version="1.0" xmlns="http://www.w3.org/2000/svg"
 width="1615.000000pt" height="1615.000000pt" viewBox="0 0 1615.000000 1615.000000"
 preserveAspectRatio="xMidYMid meet">
<metadata>
Created by potrace 1.14, written by Peter Selinger 2001-2017
</metadata>
<g transform="translate(0.000000,1615.000000) scale(0.100000,-0.100000)"
fill="#000000" stroke="none">
<path d="M13208 12925 c-2 -1 -48 -5 -103 -9 -116 -7 -186 -13 -235 -20 -19
-3 -60 -8 -90 -11 -30 -4 -62 -8 -70 -10 -8 -2 -33 -7 -55 -10 -23 -3 -52 -8
-65 -10 -14 -3 -37 -7 -53 -10 -15 -3 -60 -12 -100 -21 -39 -8 -83 -18 -97
-20 -14 -3 -48 -12 -77 -20 -29 -8 -64 -17 -78 -20 -44 -8 -311 -92 -429 -136
-233 -85 -613 -262 -755 -352 -22 -14 -43 -26 -45 -26 -15 0 -374 -237 -447
-294 -15 -12 -39 -30 -54 -41 -16 -11 -44 -32 -62 -47 l-35 -27 -39 25 c-158
99 -505 267 -744 359 -241 93 -586 200 -740 229 -11 2 -38 9 -60 15 -22 6 -58
13 -80 17 -22 3 -42 7 -45 9 -4 3 -107 22 -266 50 -12 2 -48 7 -80 11 -33 4
-61 9 -64 9 -3 1 -36 5 -75 9 -38 5 -77 10 -86 11 -8 2 -55 6 -105 10 -49 4
-100 9 -114 11 -154 21 -862 21 -1054 -1 -17 -2 -71 -6 -120 -10 -49 -4 -98
-8 -110 -10 -11 -2 -48 -6 -81 -10 -33 -3 -87 -10 -120 -15 -33 -5 -82 -12
-110 -15 -27 -2 -61 -7 -75 -10 -14 -2 -41 -7 -60 -10 -110 -19 -328 -61 -415
-80 -38 -9 -81 -18 -95 -21 -14 -3 -86 -21 -160 -40 -74 -19 -144 -37 -154
-39 -237 -55 -929 -300 -1174 -415 -35 -17 -65 -30 -67 -30 -8 0 -212 -98
-375 -179 -417 -209 -854 -475 -1235 -751 -133 -97 -426 -323 -480 -371 -16
-14 -79 -69 -140 -120 -60 -52 -117 -101 -125 -109 -9 -8 -55 -51 -104 -95
-123 -112 -383 -372 -496 -495 -52 -56 -106 -115 -120 -129 -14 -15 -50 -56
-80 -92 -30 -35 -57 -66 -60 -69 -60 -55 -475 -589 -555 -714 l-19 -28 40 20
c21 11 68 37 104 58 36 20 200 105 365 189 529 267 988 460 1500 630 192 64
465 148 521 160 11 2 55 13 99 25 197 53 650 148 830 174 22 3 56 8 75 11 47
7 98 15 135 19 138 18 153 20 295 32 41 3 91 7 110 9 250 22 776 22 980 0 19
-2 67 -7 105 -10 39 -3 81 -8 95 -10 14 -2 50 -6 80 -10 506 -60 1060 -228
1495 -454 405 -210 773 -506 1033 -829 120 -150 116 -142 98 -194 -8 -24 -66
-194 -129 -378 -164 -477 -187 -541 -275 -781 -75 -201 -127 -335 -157 -404
-7 -16 -43 -102 -80 -190 -77 -182 -263 -566 -355 -730 -93 -168 -252 -423
-322 -520 -87 -118 -222 -300 -240 -321 -234 -279 -444 -492 -673 -685 -165
-139 -486 -368 -620 -443 -16 -9 -46 -26 -65 -38 -357 -217 -913 -451 -1404
-592 -124 -35 -127 -40 -25 -51 31 -3 65 -7 75 -9 11 -2 48 -7 84 -11 36 -4
72 -8 80 -10 8 -2 44 -6 80 -9 36 -4 75 -8 86 -10 11 -2 53 -7 94 -10 41 -4
86 -8 100 -10 31 -5 135 -15 330 -30 47 -4 101 -9 120 -11 19 -2 87 -7 150
-10 63 -4 135 -8 160 -10 338 -26 1300 -26 1660 0 25 2 88 6 140 10 52 3 111
8 130 10 19 2 67 7 105 10 39 4 88 8 110 10 70 6 179 19 255 30 14 2 50 6 80
10 61 7 54 6 240 35 74 12 146 23 160 25 14 1 25 4 25 5 0 1 9 3 20 5 72 11
101 16 190 35 55 11 111 23 125 25 14 3 75 16 135 30 129 31 131 31 170 40
157 37 644 182 720 215 11 4 54 20 95 35 366 133 724 302 1045 492 173 103
504 330 545 373 3 3 25 21 50 40 25 19 52 41 60 50 8 8 42 38 75 65 85 72 299
284 391 391 115 131 344 438 344 460 0 3 11 20 24 37 13 18 58 95 101 172 43
77 99 176 125 220 57 95 177 333 215 425 15 36 33 79 41 95 12 27 56 142 59
155 1 3 5 12 8 20 43 100 181 576 204 699 2 14 6 28 9 32 2 4 9 31 15 61 11
53 24 112 34 158 7 31 35 176 41 210 3 14 11 59 19 100 8 41 17 89 20 105 2
17 7 41 10 55 3 14 14 84 26 155 12 72 22 137 24 145 1 8 6 35 10 60 4 25 9
54 11 65 2 10 6 37 9 60 9 60 15 97 20 125 3 14 7 39 9 55 16 97 31 190 42
255 3 19 8 46 10 60 3 14 15 86 29 160 13 74 27 149 30 165 11 66 17 94 40
202 14 61 26 122 29 135 2 13 14 61 26 108 12 47 24 94 26 105 16 83 143 483
174 550 5 11 28 65 50 120 72 172 237 461 320 559 10 12 35 41 55 66 343 418
869 686 1500 765 28 4 60 8 71 10 21 3 149 14 227 19 20 2 39 5 42 8 12 12
-289 195 -464 282 -103 52 -312 141 -433 185 -96 35 -341 111 -373 116 -11 2
-65 14 -120 28 -55 14 -143 32 -195 41 -52 9 -104 18 -115 20 -11 2 -45 7 -75
11 -30 4 -64 9 -75 11 -11 2 -54 6 -95 10 -41 3 -93 8 -115 10 -43 5 -552 14
-557 9z"/>
</g>
</svg>
